<mxfile host="app.diagrams.net" modified="2023-10-28T05:09:15.631Z" agent="Mozilla/5.0 (Windows NT 10.0; Win64; x64) AppleWebKit/537.36 (KHTML, like Gecko) Chrome/118.0.0.0 Safari/537.36" version="22.0.8" etag="hPmk_xvjDrJ55x33Tb-a" type="github">
  <diagram name="第 1 页" id="vpsKh7SoM29XAXK7AcAd">
    <mxGraphModel>
      <root>
        <mxCell id="0" />
        <mxCell id="1" parent="0" />
      </root>
    </mxGraphModel>
  </diagram>
</mxfile>
